<?xml version="1.0" encoding="UTF-8"?>
<svg id="Layer_1" xmlns="http://www.w3.org/2000/svg" version="1.1" viewBox="0 0 9702.46 10751.98">
  <!-- Generator: Adobe Illustrator 30.5.1, SVG Export Plug-In . SVG Version: 2.1.4 Build 3)  -->
  <defs>
    <style>
      .st0 {
        fill: #010101;
      }
    </style>
  </defs>
  <path class="st0" d="M2151.12,116.28c314.63,0,607.57,50.23,878.94,150.49,271.24,100.35,506.15,250.83,704.51,451.44,198.36,200.71,353.32,451.44,465.12,752.4,111.68,300.96,167.57,654.39,167.57,1060.2,0,355.68-45.63,684-136.8,984.96-91.27,300.96-229.13,560.88-413.82,779.76-184.66,218.89-414.98,391.06-690.83,516.42-275.95,125.48-600.86,188.1-974.69,188.1H44.4V116.28h2106.71ZM2075.88,4097.14c154.96,0,305.43-25.01,451.43-75.24,145.89-50.13,275.85-133.38,389.88-249.66,113.93-116.29,205.2-267.83,273.6-454.87,68.4-186.92,102.61-414.88,102.61-684,0-246.24-23.95-468.54-71.84-666.89-47.87-198.36-126.52-368.18-235.97-509.58-109.45-141.29-254.25-249.67-434.33-324.9-180.2-75.24-402.5-112.86-666.9-112.86h-766.07v3077.99h957.6Z"/>
  <path class="st0" d="M5064.93,1562.94c109.45-312.29,266.76-584.82,471.96-817.38,205.2-232.56,457.1-414.89,755.82-547.2C6591.32,66.15,6927.65,0,7301.61,0s715.85,66.15,1012.32,198.36c296.36,132.31,547.2,314.64,752.4,547.2,205.2,232.56,362.51,505.09,471.96,817.38,109.45,312.4,164.17,650.97,164.17,1015.74s-54.72,687.42-164.17,995.21c-109.45,307.8-266.76,575.74-471.96,803.7-205.2,228.07-456.03,406.98-752.4,536.93-296.47,129.96-633.88,194.94-1012.32,194.94s-710.29-64.98-1008.9-194.94c-298.72-129.95-550.62-308.86-755.82-536.93-205.2-227.96-362.51-495.9-471.96-803.7-109.45-307.8-164.15-639.54-164.15-995.21s54.7-703.34,164.15-1015.74ZM6046.46,3177.17c47.89,193.88,124.21,368.3,229.15,523.26,104.84,155.07,241.64,279.36,410.4,372.78,168.65,93.51,373.85,140.22,615.6,140.22s446.84-46.71,615.6-140.22c168.65-93.42,305.45-217.71,410.42-372.78,104.82-154.97,181.25-329.39,229.13-523.26,47.87-193.76,71.82-393.29,71.82-598.49s-23.95-421.73-71.82-622.45c-47.89-200.6-124.31-379.62-229.13-536.93-104.97-157.32-241.77-282.69-410.42-376.21-168.76-93.41-373.96-140.22-615.6-140.22s-446.94,46.81-615.6,140.22c-168.76,93.52-305.56,218.89-410.4,376.21-104.94,157.31-181.27,336.33-229.15,536.93-47.87,200.72-71.82,408.16-71.82,622.45s23.95,404.73,71.82,598.49Z"/>
  <path class="st0" d="M0,6661.65v-902.87h4001.39v902.87h-1463.77v3980.88h-1073.86v-3980.88H0Z"/>
  <path class="st0" d="M6203.82,9438.69c59.21,114.03,137.86,206.39,235.97,277.02,98,70.76,213.12,123.12,345.42,157.33,132.21,34.19,269.01,51.28,410.4,51.28,95.77,0,198.36-7.9,307.81-23.93,109.45-15.93,212.04-46.7,307.79-92.33,95.77-45.53,175.49-108.28,239.41-188.1,63.81-79.72,95.75-181.27,95.75-304.39,0-132.19-42.22-239.39-126.52-321.46-84.43-82.08-194.94-150.48-331.74-205.2-136.8-54.72-291.88-102.61-465.12-143.64-173.37-41.05-348.84-86.58-526.68-136.8-182.43-45.53-360.28-101.44-533.52-167.59-173.34-66.04-328.32-151.54-465.12-256.5-136.8-104.84-247.41-235.97-331.74-393.28-84.43-157.33-126.52-347.67-126.52-571.15,0-250.73,53.54-468.54,160.73-653.21,107.09-184.69,247.31-338.59,420.65-461.71,173.24-123.11,369.37-214.28,588.25-273.6,218.87-59.21,437.75-88.91,656.62-88.91,255.34,0,500.4,28.53,735.3,85.49,234.8,57.07,443.42,149.41,625.87,277.02,182.33,127.72,327.13,290.7,434.33,489.07,107.09,198.36,160.75,438.94,160.75,721.63h-1039.69c-9.19-145.89-39.96-266.76-92.33-362.53-52.49-95.75-122.06-170.99-208.62-225.71-86.68-54.72-185.87-93.42-297.55-116.29-111.78-22.77-233.74-34.19-365.93-34.19-86.68,0-173.37,9.19-259.92,27.35-86.68,18.28-165.34,50.24-235.99,95.75-70.73,45.66-128.88,102.61-174.41,171.01-45.63,68.4-68.4,155.08-68.4,259.92,0,95.75,18.16,173.34,54.72,232.55,36.44,59.33,108.26,114.03,215.46,164.17,107.09,50.22,255.32,100.36,444.59,150.48,189.17,50.22,436.58,114.03,742.14,191.52,91.16,18.26,217.71,51.28,379.63,99.17,161.82,47.89,322.55,124.29,482.22,229.15,159.56,104.94,297.55,245.16,413.82,420.65,116.29,175.6,174.43,400.14,174.43,673.74,0,223.46-43.38,430.91-129.96,622.44-86.68,191.52-215.46,356.84-386.47,495.89-170.99,139.16-383.05,247.41-636.11,324.9-253.09,77.49-546.13,116.29-878.94,116.29-269.12,0-530.1-33.15-783.19-99.19-253.06-66.04-476.55-169.82-670.32-311.21-193.86-141.3-347.75-321.48-461.68-540.36-114.03-218.9-168.76-478.8-164.17-779.77h1039.67c0,164.17,29.62,303.31,88.93,417.24Z"/>
</svg>