<?xml version="1.0" encoding="UTF-8"?>
<svg id="Layer_1" xmlns="http://www.w3.org/2000/svg" version="1.1" viewBox="0 0 6069.84 11624.28">
  <!-- Generator: Adobe Illustrator 30.5.1, SVG Export Plug-In . SVG Version: 2.1.4 Build 3)  -->
  <path d="M3417.15,8843.23c-.7-119.82-28.27-231.77-48.38-346.1-34.11-193.88-84.43-370.08-150.02-553.24-54.58-152.43-103.59-448.65-314.72-360.16-143.17,60.01-148.39,233.3-127.93,385.01l99.88,740.63c64.75,480.19,204.16,1048.76,81.27,1525.44-75.93,294.53-174.1,573.64-268.67,860.93-58.11,176.53-149.75,522.79-362.53,505.04-52.32-4.37-105.18-90.66-124.22-146.12-106.45-310.09-174.13-619.58-226.79-947.59l-137.79-858.2-175.14-817c-200.42-934.91-367.87-1353.27-323.74-2357.53,20.61-468.98,75.36-920.52,132.61-1385.53,12.41-100.8,54.78-410.81-59.54-429.84-127.74,25.75-294.04,303-335.82,409.57l-213.88,545.61-102.13,297.69-55.75,166.05c-43.95,130.91-101.05,253.4-188.64,352.68-74.4,84.32-181.77,145.47-282.83,97.73-78.83-37.24-141.38-116.13-167.11-207.08C24.84,6178.27-2.34,6029.48.16,5875.81c6.84-421.42,82.17-820.13,202.96-1216.52,116.54-382.42,276.01-728.83,433.77-1091.99,220.41-507.38,557.26-915.42,1047.13-1086.3l173.53-60.53,557.61-130.16c209.01-48.79,410.08-106.23,610.7-224.97-167.61-74.64-313.91-155.4-428.11-296.57-157.93-195.21-279.19-399.75-351.72-651.89-120.17-313.83-22.88-673.89,226.37-871.54C2638.43,113.68,2824.57,23.76,3030.5,1.88c110.54-11.75,218.89,34.41,323.77,56.57,242.18,51.19,408.28,240.49,469.43,510.5,66.88,295.31,20.11,595.26-96.91,875.23-97.62,233.58-247.28,408.61-430.83,577.29,104.69,55.34,201.71,106.21,309.21,141.16,562.08,182.72,1118.35,350.05,1553.55,827.32,68.66,75.3,111.11,176.35,155.02,273.34l209.86,463.59c74.18,163.86,122.1,331.4,162.56,509.44l46.73,205.6,267.01,979.57c58.31,213.91,73.98,420.09,69.12,643.84-3.66,168.72-13.76,340.32-109.22,476.38-75.88,108.14-209.58,94.5-306.71,23.05-51.83-38.12-121.66-71.75-159.66-125.65-83.61-118.57-124.56-257.2-195.11-384.22-104.93-188.92-236.42-363.81-281.87-586.15l-94.82-463.9c-48.25-236.06-148.86-607.69-290.84-790.48-49.32-63.5-196.42-110.39-233.33-13.97-55.71,145.51-10.25,326.22,25.62,472.63l98.26,401.04c50.43,205.84,97.52,413.96,95.96,630.17-1.64,227.89-6.35,442.6-21.25,670.26-29.24,446.94-52.81,888.03,16.86,1331.81l40.78,259.77,98,607.71,99.86,575.59c22.88,131.87,22.9,262.48,29.17,396.52,17.48,373.69-16.44,730.03-97.57,1091.7-86.08,383.77-178.46,750.73-515.12,947.09-134.81,78.63-312.96,32.58-422.73-71.93-112.65-107.24-193.44-239.18-247.77-391.74l-57.07-160.26c-116.79-327.96-114.88-683.92-116.97-1039.95l-6.33-1077.6ZM3188.13,1959.05c490.89-285.28,748.26-1046.29,494.26-1584.95-58.68-124.44-188.59-219.48-302.1-268.96-285.86-124.61-619.72,10.25-849.2,205.3-179.64,152.68-295.45,392.93-248.39,652.18,88.05,485.03,438.32,925.72,905.44,996.44ZM3495.64,9352.95c17.1,520,42.71,1163.29,194.02,1649.34,61.05,196.11,213.27,464.18,397.72,511.4,207.62,53.15,398.61-166.47,471.65-349.67,84.59-212.17,137.75-423.84,161.54-651.35l43.75-418.48c40.1-383.58,40.74-764.65-26.03-1144.21l-70.49-400.7-114.44-769.78c-163.94-1102.77,157.73-1634.83-109.11-2649.33l-60.34-229.4c-44.44-168.96-169.61-670.3-27.05-786.1,103.7-84.24,262.07-55.71,354.04,101.98,328.26,562.83,230.69,1071.73,563.56,1643.07,59.24,101.69,111.11,194.09,160.21,300.58,103.02,223.42,395.69,458.4,472.3,340.25,119.18-183.8,81.9-323.93,86.08-520.3,6.19-290.37-64.33-548.23-139.98-820.65l-199.98-720.17c-59.18-213.13-109.59-421.62-188.77-626l-193.51-499.47c-48.53-125.25-86.67-255.31-190.65-345.56-80.48-69.86-176.47-128.07-267.46-192.91-168.85-120.32-336.42-224.16-526.81-303.14-370.65-153.74-743.44-268.35-1129.63-367.14l-239.79,131.72c-303.84,166.91-863.8,240.95-1186.86,347.57-477.48,157.58-733.38,400.54-963.57,891.84-168.66,359.98-324.13,716.08-452.87,1095.4-124.49,366.78-188.99,674.55-234.07,1061.75-21.25,182.56-17.14,350.05,22.3,528.41,21.93,99.16,45.59,222.28,141.61,265.97,76.41,34.77,164.4-31.88,219.13-88.82,128.21-133.41,166.36-309.58,228.55-485.56,106.4-301.07,217.41-590.91,336.84-883.71,64.95-159.24,303.73-532.41,472.91-379.17,72.06,65.27,69.59,178.74,60.72,270.06l-17.14,176.5-107.37,924.05c-45.26,389.5-73.81,771.88-38.49,1166.85,28.45,318.07,99.9,618.52,165.58,924.68l119.44,556.8c104.95,489.25,205.47,966.78,275.2,1466.48,45.94,329.23,62.72,656.13,169.36,960.79l111.84,319.5c18.23,52.08,68.32,134.49,116.16,134.05,121.49-1.11,188.7-109.95,224.03-224.45l289.41-938.03c112.89-365.89,90.46-734.39,30.65-1112.66l-127.83-808.59c-32.8-207.48-62.98-408.67-68.16-617.5-2.59-104.47,51.49-201.46,123.04-248.43,120.87-79.34,246.17-60.55,330.97,63.83,154.02,225.9,310.23,911.51,319.24,1185.47l18.51,562.94Z"/>
</svg>